<?xml version="1.0" encoding="UTF-8"?>
<svg id="Layer_2" data-name="Layer 2" xmlns="http://www.w3.org/2000/svg" viewBox="0 0 704.39 680.84">
  <g id="Layer_1-2" data-name="Layer 1">
    <g>
      <path d="M646.78,571.37c-4.28,8.15-13.88,10.11-21.24,6.57,3-3.05,5.54-6.77,7.54-11.29.8-7.72.23-15.11-2.81-22.21l-5.7-13.32c10.74,5.58,18.63,12.52,23.32,24.49.97,5.14,1.51,10.75-1.12,15.76Z"/>
      <g>
        <path d="M249.76,549.77c-2.98-3.87-5.71-1.26-11.73-1.5-12.31-.5-21.08-9.34-27.83-19.12.02-.09-1.65,1.31-2.16,1.9l-5.09,5.86c-3.15,3.62,3.24,6.12.16,13.17l-5.2,11.89c-.47,1.08.07,4.53,1.1,4.5,1.75-.06,5.04-1.05,6.29-1.93l7.66-5.4c.44,2,.44,4.73-.37,6.24l-6.42,11.79c-5.27,9.69-8.9,25.23-3.77,35.74,2.03,4.16,6.55,5.05,10.11,2.63l5.42-3.67c8.03-5.44,1.61-5.84,8.12-15.45,2.48,9.87.39,14.07,4.79,23.38,1.6,3.4,6.03,7.21,9.8,7.12l10.24-.25c-1.28,3.46-2.96,7.19-5.45,9.52-5.76,5.38-14.45,5.6-20.13-.02-5.92-5.86-3.71-15.2-6.23-16.28-1.97,7.76-3.35,19.32,1.2,25.97l4-3.87.94-.66c.22-.16.7,1.39.69,1.79l-.91,18.6c-.32,6.54,1.65,12.41,2.73,19.12-16.16-2.65-26.92-18.87-28.59-34.27-.67-6.19-5.42-.86-11.69-7.43-12.16-12.75-10.74-33.6-5.31-49.32.19-.56.76-2.21.3-2.45l-2.26-1.17c-2.58-1.33-5.54-3.37-6.15-6.57-.76-3.96-.19-8.76,1.67-12.08l7.65-13.57c.21-.36.77-1.52.55-1.82-1.62-2.18-11.04-3.95-9.87-14.52,1.63-14.63,11.21-6.59,16.19-13.5,3.62-5.03,5.26-10.22,6.23-16.43,1.25-7.94-4.56-5.44-7.95-21.71-.24-1.14-2.57-2.43-3.92-3.09-5.64-2.78-10.27-6.76-14.57-11.43-8.13-8.83-6.13-15.56-10.27-15.95l-19.83-1.85-63.03-6.16-49.9-4.97-23.06-2.26c-2.5-.25-4.37-2.65-3.8-5.64l8.77-45.76c.81-4.24,9.07-1.03,19.68-8.19,8.16-5.52,9.77-15.87,3.76-23.45-3.44-4.34-8.48-6.73-13.6-8.79l-2.07-.83c-.43-.17-.11-1.75,0-2.23l2.72-12.4,7.38-33.61c.56-2.56,2.99-4.39,5.76-4.12l42.91,4.15,26.18,2.43-2.15-15.93-7.89,1.3c-5.8.95-11.58-1.4-15.1-6.18-6.9-9.37-6.13-19.22-4.82-30.29l-4.47-.65c-4.59-.66-8.87-3.2-11.05-7.56-6.19-12.32-2.13-27.99,5.51-39.41,2.98-4.46-4.03-5.04-5.89-15.14-4.45-24.2,22.1-42.92,39.62-53.45,3.77-2.26-2.8-7.49.83-15.67,1.55-3.49,4.63-6.88,7.84-8.83,11.2-6.83,21.37-4.66,37.53-12.03,3.94-1.8-2.44-17.61,11.69-25.76,6.59-3.8,14.76-3.5,21.48-.05.8.41,3.13-.07,3.91-.6,9.48-6.35,15.45-8.83,26.6-11.5.55-.13,1.95-.48,1.86-.88l-.46-2.05c-1.14-5.12-2.16-10.7.19-15.54,3.32-6.85,9.85-10.91,17.25-12.64,13.88-3.26,25.37,2.7,28.28,1.84,1.57-.46.53-9.37,8-14.47,11.97-8.17,25.18,7.55,26.08,5.54l.81-1.8c3.11-6.91,8.69-11.33,16.9-10.56,9.93.93,13.79,6.33,14.98,2.63,1.86-5.81,9.01-12.54,16.78-12.16,22.91,1.12,30.87,23.06,32.43,21.65l1.3-1.18c4.06-3.66,8.53-7.03,13.75-8.97,9.74-3.62,20,.99,23.85,10.76,2.14,5.42,7.3-.47,20.29,1.98,9.32,1.75,11.47,8.74,16.16,6.78,6.94-2.91,14-3.24,20.74-.76,8.78,3.23,9.8,9.88,11.48,17.47,7.95-3.33,15.66-4.89,23.99-2.83,9.07,2.24,15.84,9.31,16.55,19.01.56,7.67-1.88,12,1.42,12.48,21.64,3.13,31.08-2.74,43.82-1.48,13.44,1.34,21.71,13.29,19.4,26.31-.08.46-.17,1.55-.18,1.92-.01.55,1.45,1.33,2.02,1.42,15.53,2.46,40.13,8.59,50.13,20.82,6.03,7.37,5.79,17.24-.58,24.59l9.92,4.41c18.9,8.4,43.06,25.16,39.76,48.78-1.58,11.31-8.99,11.59-4.82,16.74,10.4,12.84,16.36,28.36,10.96,44.55-2.39,7.15-7.45,12.68-13.74,16.99-4.63,3.17,3.22,13.46-3.72,32.39-3.6,9.84-12.46,16.22-23.07,15.62-5.91-.33-.39,5.85-4.26,17.72-3.6,11.05-13.38,16.97-24.57,15.28l-5.97-.9c-2.11-.32-.02,14.48-12.08,20.21-8.62,4.09-19.58,3.84-27.21-2.41-.9-.74-4.06,1.36-3.69,2.56,5.02,16.09,12.29,32.92,26.07,43.76,8.35,6.57,18.83-1.3,25.61,9.21,4.45,6.9-2.89,13.15.6,14.78l9.32,4.36c5.73,2.68,11.07,6.06,15.33,10.49,5.32,5.54,5.41,13.05.35,19.51l6.72,2.69c16.17,6.48,25.82,20.43,20.35,38.48-1,3.29,2.95,6.98,5.81,8.29,5.48,2.53,10.41,5.27,14.75,9.15,12.89,11.53,12.04,32.4,1.12,42.15-.75.67-3.38.54-4.27.08l-13.48-6.96c-.26-.14-1.04-.86-1.07-.91,9.15-5.23,3.9-17.49-1.16-23.32-4.47-5.15-9.3-9.29-14.44-13.73-3.3-2.85-14.2-12.87-16.14-15.65l-.82-1.17-2.14-3.15-1.02-1.52c-.42-.02.26.01,1.12.06l8.4,2.01c1.19.29,3.84-.63,4.65-1.45,3.31-3.36-1.69-10.63-6.08-13.18-11.62-6.77-23.39-10.23-37.62-17.49-1.64-.84-3.84-3.73-4.6-5.22-.14-.27,1.39-1.19,1.69-1.16l6.97.63c4.05.37,11.58-1.44,12.02-5.49s-6.83-7.03-10.25-8.32l-14.78-5.54c-24-9-29.5-32.41-41.62-45.07l-6.37-6.65c-.45-.18-2.04-.69-1.83-.62,3,9.89,6.76,20.35,3.55,29.63-.15.43-1.38,1.54-1.84,1.56-.61.03-1.84-.6-2.27-1.06l-9.61-10.25-1.67,1.69c-.17,6.93-1.7,13.72-5.52,19.29-5.26,7.67-14.68,11.17-23.73,9.42l-7.23-1.39c.31,7.85-1.52,14.82-6.45,20.46-9.9,11.32-19.61,3.22-21.54,8.35s-4.48,10.15-8.29,13.72c-11.33,10.62-30.78,14.51-45.68,10.22-4.49-1.29-8.74-3.81-12.26-6.65l-1.32-1.07c-1.12-.9-4.33,11.07-16.28,14.79-14.52,4.51-20.92-2.59-22.32,2.95-1.7,6.68-4.06,13.4-7.89,19.16-9.43,14.19-28,19.1-42.94,10.8-5.89-3.27-5.08,6.84-17.11,9.07-5,.93-10.86-1.58-14.33-4.48l-1.73.24-2.41,7.9c-1.45,4.76-7.02,7.26-11.65,5.34-10.29-4.27-16.11-12.15-22.89-20.92ZM482.4,429.81l-3.17-9.47,1.17-1.18,10.61,8.56c4.55,3.67,9.95,7.37,15.78,7.85,6.37.52,11.22-4.05,11.75-10.37.31-3.69-.98-10.15-2.29-13.17-.29-.66-2.93-.99-3.65-.99h-5.04c.14-19.84-5.55-37.22-15.58-54.29-4.07-6.93,2.97-11.21-2.43-19.03-4.46-6.46-12.12-3.01-13.09-8.39l-2.42-13.44c.13-.6.27-1.24.2-.92,2.99,5.46,7.96,13.58,15.13,10.63,5.61-2.31,3.88-14.65,2.28-19.45-5.95-17.8-17.12-27.76-32.47-36.68-.5-.29-1.89-1.87-1.49-2.07,5.44-2.42,8.19.98,14.96-.9,1.91-.53,3.48-5.38,2.95-7.32-1.01-3.66-2.21-6.75-3.77-10.24-3.16-7.05-.7-10.8.88-10.55,4.28.65,2.83,2.46,9.69,4.88,3.95,1.39,8.19-.98,9.28-4.9,2.87-10.33-3.66-19.52-9.76-27.6-1.77-2.35-2.8-4.04-4.4-7.56,4.04.1,12.11,7.03,14.01,4.19,1.17-1.76.11-6.21-1.12-7.86l-9.04-12.13c-1.13-1.52-1.7-6.13.09-6.71,3.03-.98,11.81,3.5,13.84-4.87,2.48-10.22-2.25-18.07-6.44-28.32-1.22.13-.81-.17.25-.83,12.63,12.39,22.07,23.27,19.31,41.97-1,6.79-5.2,8.14-2.29,10.66,8.52,7.38,12,19.14,7.84,29.87l-7.26,18.76c-2,5.16-2.37,10.95-.62,16.21,1.01,3.04,4.66,5.45,7.57,5.07l6.81-.87c-.15,5.21-4.8,8.51-4.45,18.23.18,5.04,2.57,10.14,7.28,11.96,10.96,4.24,20.02-8.05,20.7-17.81l1.26-18.25,4.71,12.03c3.49,8.9,4.01,18.69,1.41,27.96-2.85,10.17-9.23,9.52-8.98,15.1.51,11.46,2.81,21.61,8.01,31.57,1.82,3.49,7.5,10.65,11.52,9.11.84-.32,2.54-2.19,2.58-3.13l.31-7.28c.13-3.08.3-5.42.72-8.57l8.11,11.81c2.31,3.37,6.49,6.27,10.35,7.77,4.66,1.82,9.53-.63,10.65-5.57,1.35-5.91,1.15-12.28.15-18.35l-2.03-12.42h1.27s10.6,10.53,10.6,10.53c2.93,2.91,7.15,5.11,11.34,5.79,3.05.5,6.61-1.6,7.71-4.42,3.18-8.22-1.12-20.32-4.32-27.85-1.42-3.35-8.2-2.44-13.02-8.87.05-.12,1.43-.96,1.85-.97,5.14-.11,12.39-3.92,13.3-10.62.51-3.78,1.13-8.3.4-12.18l-2.8-14.87c-.09-.48-.8-1.99-.9-2.24,12.13,11.07,23.49,30.3,10.24,46.08,4.13,2.48,9.39,4.05,14.2,2.78,5.09-1.35,8.55-5.75,9.59-10.93,3.15-15.72-5.64-30.82-13.75-43.59l-9.56-15.06c-.59-1.09-.74-1.38-.16-.59,12.19,4.29,25.13,24.39,36.79,20.18,6.94-2.51,3.78-15.77.69-21.27-5.1-9.07-11.77-16.71-19.46-23.58l-9.58-8.55c-3.08-2.75-5.66-6.13-8.18-9.63.5-.22,1.46-.66,1.76-.77l14.75,7.33c4.21,2.09,12.17,5.7,15.56,2.38,3.6-3.53-.15-12.12-3.03-15.95-9.53-12.67-27.34-20.68-41.65-26.69l-7.25-3.04.83-.39,7.49-2.64c-1.69-1.27-3.58-2.69-4.75-3.08l-18.75-6.28c5.24-2.98,23.28.03,24.36-6.33,1.32-7.8-28.24-15.17-35.11-17.08l-23.48-6.56c-.97-.27-8.31-1.89-7.26-4,.12-.25.81-1.17,1.05-1.36l6.69-5.05c2.52-1.9,4.27-5.18,4.87-8.44-8.41,1.53-15.04,1.65-22.53-.85-17.51-5.84-35.61-7.04-53.8-3.1-1.09.24-4.5,0-4.93-1.03s1.42-3.64,2.41-4.44l9.55-7.73c2.06-1.67,4.18-5.4,4.9-7.9,1.36-4.73-1.42-9.21-6.19-9.99-20.36-3.32-37.01,16.84-39.66,11.14-2.38-5.13,11.46-20.65,3.03-26.01-10.01-6.37-27.23,12.34-32.35,9.79-.36-.18-.75-1.6-.62-1.95l2.23-5.8c1.22-3.17-.03-6.91-3.77-7.8-12.43-2.97-22.05,4.66-32.6,6.89l4.43-8.22c1.28-2.37,1.63-6.67-.22-9.02s-6.17-2.84-8.81-2.04c-7.57,2.29-12.33,7.98-15.68,14.81l-1.99,4.04c-2.15,4.39-8.88-21.13-28.68-26.84-3.72-1.07-7.82,1.43-7.85,5.27-.07,7.62,1.7,10.55,0,13.97-2.18,4.38-19.42-16.44-30.13-10.11-1.23.73-2.29,4.42-2.08,5.86l1.14,7.86c.08.58-.5,2.37-1,2.53s-2.14.1-2.61-.22l-7.96-5.55c-4.76-3.32-13.88-9.6-18.85-6.51-7.14,4.44,1.06,18.19.26,24.29-.12.92-3.73.52-4.55.06l-10.06-5.61c-8.53-4.76-23.09-9.09-31.68-3.16-5.43,3.75,1.64,12.52,4.88,15.87l3.95,4.09c.76.78,1.14,3.21.44,3.98-2.69,2.94-16.23-1.09-34.66,6.5-6.89,2.84-19.4,11.79-15.72,17.83.53.86,2.56,2.34,3.74,2.43l11.85.89c.8.06,10.93.8,8.55,3.19-.22.22-1.07,1.06-1.36,1.18l-6.86,2.78c-5.73,2.32-11.12,5.23-15.35,9.83-9.29,10.11-11.7,29.41-.07,31.83l4.31.9c-.34,2-1.32,5.03-2.32,6.06l-8.46,8.71c-2.46,2.53-12.32,14.48-7.9,16.79,1.3.68,5,.23,6.6-.03.43.04,1.69.99,2.06,1.5-2.78,3.86-5.78,7.46-9.28,9.86l-11.42,7.82c-15.25,10.44-16.01,23.32-10.86,21.29,10.58-4.16,25.15-8.07,35.51.27-16.06,3.6-29.41,10.77-41.37,21.81-3.6,3.33-22.45,21.29-4.93,15.71,0-.02.23.82.27.96l-5.2,5.42c-3.95,4.12-7.12,8.27-10.14,13.34-1.51,2.53-2.84,9.38.03,10.43.73.27,2.72.26,3.45-.11l5.43-2.71c-.04-.12.27.86.38,1.21-3.34,6.98-9.82,18-2.88,25.08l4.49-4.65c1.38-1.43,3.01-2.78,4.9-4.12l-1.57,14.52c-.33,3.08,1.91,7.56,3.81,9.84,2.87,3.45,7.01,3.78,10.64,1.77l4.6-2.55c.44-.25,1.36,1.58,1.45,2.13l1.25,7.83c.76,4.78,5.46,7.63,10.09,7.54,13.82-.27,17.21-7.97,25.96-9.67,3.61-.7-1.59,6.66-.98,8.95,1.22,4.53,14.77,1.05,22.54-8.5,2.18-2.68,6.05-7.14,5.99-10.36l-.18-10.29c-.03-1.47-1.48-3.55-2.99-3.96-26.25-7.11-47.12-34.39-35.91-59.7,3.07-6.93,9.31-12.07,15.99-15.43,15.88-7.97,36.49-8.24,53.82-5.6,22.07,3.36,55.28,17.37,46.02,45.38-7.19,21.76-32.43,33.99-53.59,37.07-1.75.26-4.53.71-5.96,1.14-1.28.39-2.94,19.56,11.36,26.86,1.09.56,4.64,1.33,4.81.43l1.1-5.73c-.27-.36,1.66.61,1.94,1.06l4.45,7.34c3.75,6.18,13.05,13.82,16.81,9.77.9-.97.65-4.48.73-5.85l.11-2.04c.16-2.78,7.34,5.28,7.77,5.76,6.32,7.12,15.26,10.72,24.68,8.38,3.53-.88,5.33-4.15,5.37-7.48l.08-5.66c2.47,1.78,3.79,2.7,5.42,4.21,6.78,6.29,15.48,8.72,24.57,6.22,6.41-1.77,15.17-8.25,10.7-11.4l-5.26-3.71,9.58-.96c11.93-1.19,24.19-2.45,32.71-12.42,1.89-2.21,1.23-6.25-1.25-7.64-1.63-.91-4.55-1.92-6.06-1.98l-8.26-.36c3.59-7.47,10.45-10.4,18.02-10.18,9.11.26,16.95,4.32,23.95,9.87,13.81,10.95,6.34,17.52,14.04,18.22l43.64,3.98c4.57.42,3.36,6.12,2.92,8.38l-4.6,23.53-4.92,25.18c-.97,4.98-9.95-1.74-24.06,8.66-3.21,2.36-5.77,6.81-5.65,10.93.13,4.74,3.06,9.08,6.97,11.82,7.41,5.18,13.48,3.08,12.56,7.21l-5.27,23.72-4.42,19.92c-.22,1.01-1.87,2.67-3.16,2.55l-71.84-6.59-48.32-4.7c-2.23-.22-4.66,1.22-6.12,2.67l-8,7.93c2.61.41,4.6.72,6.85.93l38.41,3.53,31.17,2.92,61.08,5.86c5.74.55,10.2-2.71,11.34-8.52l4.04-20.55c.63-.17,3.02-.23,3.82-.05,5.42,1.17,11.37-1.2,13.51-7.01,3.28-8.92.83-18.85-2.42-28.55ZM165.98,87.78c-2.68-.12-5.45.07-5.99,1.24-1.29,2.79.53,7.81,4.07,8.27l1.92-9.5ZM97.09,225.68c-4.06,10.17-9.26,27.13-3.37,36.32.73,1.13,4,1.99,5.18,1.46,3.95-1.77,2.06-6.67,2.37-11.61.65-10.38,5.52-19.36,13.24-25.85l-1.25,8.45c-.35,2.35-.86,10.96,1.13,11.19-.25-.03,9.92-10.26,12.25-12.47,3.22-3.05-1.53-3.32-1.63-11.38-.2-16.78,9.53-26.47,23.15-34.59,8.28-4.93-4.68-11.05,14.69-29.26,2.84-2.67-5.41-5.96-5.47-22.15-.08-20.53,13.38-26.11,11.07-29.38l-3.26-4.62-11.08,6.1c-14.86,8.17-17.94,8.67-33.87,13.12-2.85.8-8.71,2.02-8.48,5.22.26,3.59,5.69,4.67,8.37,5.24l10.24,2.16-11.46,6.2c-9.3,5.04-18.16,10.77-25.91,18.01-6.23,5.81-20.52,21.45-15.35,30.15.71,1.19,4.56.28,5.82-.65,6.75-4.96,14.29-9.51,22.26-12.65l-3.57,4.5c-6.62,8.59-12.89,16.97-18.86,26.08-2.65,4.05-12.31,21.98-6.85,24.9,1.11.59,4.56-.15,5.47-1.03l8.28-7.94c4.03-3.87,7.13-7.01,12.59-9.75l-5.68,14.24ZM252.28,262c4.45-1.11,14.29-1.09,14.79-5.84.36-3.49-6.59-6.88-9.8-7.98-11.18-3.84-22.38-5.63-34.2-5.11-4.6.2-15.75,1.61-16.94,6.86-.33,1.44,2.09,4.59,3.59,5.21,15.03,6.17,25.48,5.55,42.56,6.87ZM454.35,378.02l3.21-17.39c.14-.76-.97-2.37-1.8-2.46l-52.92-5.25-18.55-1.97c-2.58-.27-4.94.42-7.12,2.11-30.48,23.62-72.95,27.25-108.64,14.86-12.28-4.26-23.48-10.11-33.37-18.47-1.72-2.62-4.79-3.52-7.63-2.29-21.63,9.39-25.84,14.5-49.52,9.24-4.83-1.07-20.46,7.12-25.08-1.6-1.02-1.93-2.87-3.84-4.73-4.49-17.13-6.03-24.53-11.82-33.91-26.85-.75-1.2-3.92-1.63-5.38-1.78l-28.27-2.83-37.36-3.77c-.72-.07-2.27,1.04-2.44,1.82l-4.16,19.06c-.25,1.14,1.02,3.54,2.02,4,9.69,4.47,15.22,14.16,15.46,24.73.2,8.85-2.54,16.54-8.72,22.85-10.14,10.36-20.28,9.7-20.9,13.3l-3.1,17.83c-.12.68-.19,2.42.23,2.55s1.34.35,2.04.4l21.43,1.82,45.86,4.11,109.81,10.11,62.42,5.71,26.63,2.56,74.91,7.08,56.76,5.17,9.31.92c.93.09,2.95-1.58,3.16-2.6l3.49-16.58c-7.22-3.26-13.6-7.85-16.68-15.26-4.95-11.93-.45-25.47,9.61-33.24,14.01-10.82,22.76-7.24,23.9-13.4ZM417.87,334.5l-1.65-1.14-6.51-2.02c-.46.69-1.37,1.87-.94,1.96l2.03.39,7.07.82ZM523.35,353.52c-3.87-4.67-8.08-7.98-13.61-10.71l6.3,13.71c2.14,4.66,2.92,9.39,4.68,15,5.45-5.11,6.91-12.84,2.63-18ZM300.4,468.51l-23.43-2.3-61.78-6-18.39-1.77-.62,1.8c26.3,27.11,70.66,24.62,102.84,9.78.49-.29,1.53-1.29,1.38-1.52ZM301.12,535.23c1.08-3.36.38-6.78-.58-9.79l-2.33-7.33c3.14,1.33,4.69,2.06,6.78,3.53l11.27,7.9c3.65,2.56,9.03,3.83,13.48,3.5s8.09-3.36,8.93-7.75c1.82-9.52-5.64-14.89-12.2-20.49-1.81-1.54-4.76-2.09-7.24-1.88-14.38,1.21-27.07,1.76-40.79-2.18-6.51-1.87-6.39,2.04-20.07,4.28-12.87,2.1-25.55,1.21-37.95-3.36l-1.11,1.27c4.33,9.65,11.7,16.99,21.2,21.34,1.44.66,5.6.83,6.61-.31.77-.87,1.63-3.3,2.26-4.89-.01-.07,1.97,1.44,2.38,2.09l6.4,10.2c1.15,1.83,11.6,18.21,14,14.22,2.06-3.43.7-10.09.11-13.91l-1.32-8.54,11.58,9.11c5.43,4.27,16.58,9.25,18.59,2.96Z"/>
        <path d="M385.55,228.32c-13.16-9.66-22.02-6.87-22.06-10.69l-.14-11.82c-.08-7.32,1.84-14.79,6.04-20.59,8.77-12.13,28.75-18.69,42.6-6.43,10.35,9.16,19.62,25.65,15.71,39.8-2.04,7.37-7.42,12.14-14.52,14.5-9.25,3.07-19.29,1.34-27.62-4.77ZM403.74,196.67c0-3.74-3.03-6.77-6.77-6.77s-6.77,3.03-6.77,6.77,3.03,6.77,6.77,6.77,6.77-3.03,6.77-6.77Z"/>
        <path d="M254.77,204.37c-21.04-.15-22.84,9.74-36.92,7.33-7.54-1.29-12.99-6.61-14.93-13.91-3.28-12.37,5.93-27.32,15.2-35.79,8.37-7.66,20.5-9.15,30.09-2.42,14.81,10.4,12.82,28.58,9.78,43.64-.11.56-2.64,1.16-3.22,1.16ZM241.71,177.9c0-3.53-2.86-6.39-6.39-6.39s-6.39,2.86-6.39,6.39,2.86,6.39,6.39,6.39,6.39-2.86,6.39-6.39Z"/>
        <path d="M576.41,326.57c-9.69,3.72-19.54-.9-24.73-8.84,10.64-1.99,19.85-4.9,23.88-16.39,2.54-7.26,3.83-15.12,2.89-22.84l-2.5-20.61,1.25,1.29,6.1,12.93c5.54,11.73,8.23,24.43,6.15,37.42-1.18,7.37-5.63,14.2-13.04,17.05Z"/>
        <path d="M538.71,154.73c-4.92-16.08-16.62-25.56-32.26-30.83l-8.8-3.23c12.1-3.57,28.94-4.63,39.3,2.97s10.88,21.75,1.76,31.09Z"/>
        <path d="M608.4,239.3c-5.9.09-10.25-2.82-12.91-7.41l4.67-.87c10.29-1.93,11.35-13.28,9.14-21.36l-3.54-12.95,1.85,1.56c8.12,8.26,15.38,17.75,13.62,30.04-.91,6.34-6.19,10.89-12.84,10.99Z"/>
      </g>
      <g>
        <path d="M223.65,416.07c-1.33-.9-3.71-1.45-5.12-.9l-24.86,9.71c-.56.22-1.92.22-1.83-.05l.53-1.65,7.23-22.79c.3-.93-.61-3.37-1.32-4.16l-14.11-15.7,27.52-2.59c1.08-.1,3.32-1.7,3.98-2.53l6.58-8.28,6.26-7.46,8.36,17.22c.65,1.33,2.33,3.81,3.64,4.17,8.93,2.45,16.79,4.75,25.37,7.66l-19.62,13.06c-.58.39-1.28,2.52-1.19,3.37l2.71,24.75c-.19.46-1.22,1.62-1.33,1.52l-8.62-5.74-14.19-9.62Z"/>
        <path d="M337.19,408.61c-.14.79-2.66,2.38-3.46,2.29l-9.92-1.19-37.22-3.83c-1.52-.16-4.3-2.55-3.96-3.94l1.85-7.53c1.23-.25,3.31-.66,4.28-.56l47.01,5.17c.93.1,2.81,1.8,2.66,2.66l-1.24,6.94Z"/>
        <path d="M167.5,381.41c.7,2.3.51,12.2-4.56,11.65l-42.91-4.66c-1.23-.13-3.13-2.44-2.87-3.48l1.8-7.17c.14-.56,2.07-1.64,2.94-1.54l45.6,5.19Z"/>
        <path d="M83.21,416.65l-8.84-1.5c-.83-.14-2.01-.16-2.06-.54l-.36-2.59,2.29-11.21,5.33-26.08c4.67,1.31,8.23,1.89,12.98,2.26l-2.42,12.46-5.24,25.17c-.11.52-1.37,2.08-1.69,2.02Z"/>
        <rect x="356.51" y="419.09" width="36.76" height="13.65" transform="translate(-116.97 708.8) rotate(-78.55)"/>
        <path d="M393.82,364.34l-6.48,32.58-12.43-2.68,6.08-29.66c.08-.38.49-1.35.69-1.69s1.6-.29,2-.23l10.14,1.67Z"/>
        <polygon points="94.9 363.54 82.37 360.62 88.48 330.78 100.75 333.21 94.9 363.54"/>
      </g>
    </g>
  </g>
</svg>