<?xml version="1.0" encoding="UTF-8"?>
<svg id="Layer_2" data-name="Layer 2" xmlns="http://www.w3.org/2000/svg" viewBox="0 0 706.74 594.71">
  <defs>
    <style>
      .cls-1 {
        fill: #a7aaad;
      }
    </style>
  </defs>
  <g id="Layer_1-2" data-name="Layer 1">
    <g>
      <g>
        <path class="cls-1" d="M212.21,278.41c-25.61-5.32-48.73-27.63-51.41-54.3-1.08-10.74,3.41-20.21,13.41-24.96,23.77-11.29,58.94-8,84.07-1.5,8.61,2.23,16.6,5.23,24,9.9,14.74,9.31,10.59,26.96,2.19,39.12-12.37,17.91-31.97,29.02-53.71,31.63-1.54,29.57,41.77,40.77,64.34,42.74,40.1,3.51,77.95-16.64,104.65-45.32-6.3-2.38-11.92-2.62-18.33-1.9,1.32-6.5,7.11-11.28,14.35-12.2,17.82-2.24,43.7,8.95,42.7,31.2-8.05-1.29-15.38-4.25-22.41-8.34l-11.92,13.17,74.33,7.18c3.08.3,7.66,1.11,6.75,5.53l-11.25,54.63c-9.19.02-17.75,1.63-24.68,7.18-6.8,5.45-7.34,14.59-1.14,20.68,4.21,4.09,9.37,6.1,15.54,7.58l-10.97,48.17-125.57-12.5-10.84,9.92,131.96,13.36c-44.25,21.74-90.83,32.22-138.72,31.29-32.85-.64-63.7-10.15-91.74-26.32-.79,16.78,2.93,32.69,8.62,47.95l4.48,12.03c-9.38-7.55-17.18-16.27-22.39-27.9-6.86,32.09-6.96,65.35,1.75,98.28-11.24-3.01-21.08-8.04-30.44-14.54-8.82-41.04-4.67-91.7,8.19-131.31-8.73-7.94-14.64-17.1-18.45-27.93L3.51,403.76c-2.41-.25-3.84-2.74-3.45-4.81l9.26-49.01c6.88-1.01,12.63-2.32,18.11-5.55,8.51-5.02,11.09-16.01,5.04-23.88-4.01-5.21-9.37-8.05-16.59-10.33l10.79-48.68c.4-1.79,2.83-4.12,4.84-3.91l72.49,7.55c-3.15-13.62-3.58-25.99-2.48-39.47-9.25-6.81-15.4-15.43-21.36-25.28-15.13-28.65-23.62-59.87-26.29-92.29-1.45-17.64.46-38.54,14.28-51.05C97.81,30.18,153.67,10.73,192.51,2.48c26.81-5.7,43.69-1.98,65.05,15.36C321.62-.96,391.48,3.48,452.47,30.81c20.55-9.79,42.08-16.77,64.22-8.59,40.49,14.21,94.79,36.09,130.18,59.84,7.18,4.82,13.37,10.56,18.79,17.17,7.33,8.95,9.92,19.61,9.16,31.3-2.75,42.7-33.72,97.85-59.48,131.71-12.29,16.16-29.19,33.35-49.91,37.22,2.26,19.25,4.95,37.86,5.61,56.85.18,5.13.55,7.04,4.15,10.5l37.72,36.21c16.21,15.56,31.8,30.45,45.91,48,19.12,23.78,41.35,61.98,47.91,92.52-25.9,15.85-53.38,26.92-84.12,32.88,4.45-29.25.29-63.05-11.14-91.49-13.03,20.79-31.95,36.49-55.42,42.09,30.88-37.76,41.7-107.33,1.44-141.46-20.41,30.66-57.23,57.97-93.05,69.14l12.2-61.98c31.89-14.52,63.73-39.9,62.8-78.24l-.41-17.13c-41.77-15.61-58.42-91.13-55.43-131.44,8.47,22.34,16.88,43.42,30.97,63.68-8.22-25.11-13.94-49.87-16.85-76.24-1.94-17.63-4.28-34.24-7.47-51.49-3.97-17.4-8.68-33.72-18.57-48.78l-9.3,3.59c-60.67-34.27-140.17-40.78-205.26-15.56-11.1,4.3-20.49,9.49-31.79,14.7,5.6-7.34,11.51-13.47,18.24-20.67-1.98-2.26-6.49-6.11-9.9-5.16-7.41,2.06-12.58,7.72-17.71,13.09-31.21,35.25-46.42,83.76-52.98,129.88-40.41,15.53-55.4,59.54-37.55,97.48,16.56,35.64,55.55,42.91,90.18,27.72-1.87-6.72-3.02-12.62-3.41-19.71ZM242.4,219.4c1.41-.36,3.82-2.16,3.64-3.32s-2.03-3.72-3.21-4.16c-15.32-5.74-31.77-7.01-47.93-4.27-2.8.47-7.73,2.75-7.47,5.89s5.3,5.01,8.22,5.75c15.46,3.92,31.33,4.04,46.75.12ZM460.29,323.78l-79.27-8.54c-39.52,29.19-90.34,33.11-133.51,12.26-8-3.86-14.6-8.17-21.22-14.23-32.27,14.59-66.82,16.01-95.31-7.26-7.13-5.82-13.1-12.53-17.42-20.83l-72.12-7.89-5.37,23.82c9.52,4.36,15.31,12.07,17.22,20.47,4.48,19.65-8.57,35.37-28.56,40.34l-3.85,22.76,99.77,9.96,313.8,31.32,5.17-19.59c-9.03-3.67-15.73-10.24-18.01-18.02-6.4-21.85,13.01-37.82,34.45-41.51l4.24-23.08ZM301.55,433.81l-104.19-10.46c26.87,27.36,72.78,27.38,104.19,10.46Z"/>
        <g>
          <polygon class="cls-1" points="222.08 378.36 192.32 389.38 200.91 362.23 184.72 344.01 214.5 341.59 229.48 323.69 239.56 344.55 266.83 353.06 245.9 366.65 248.8 396.79 222.08 378.36"/>
          <path class="cls-1" d="M336.95,375.7l-50.17-5.39c-4.85-.52-2.21-9.34-.45-12.35l52.47,6.32c.62,3.86.01,7.01-1.85,11.42Z"/>
          <path class="cls-1" d="M166.13,356.98l-47.93-5.77c-.48-4.73.15-7.54,1.9-11.63l48.16,5.79-2.13,11.6Z"/>
          <path class="cls-1" d="M84.32,380.1l-12.31-2.26,7.97-39.5c4.1,1.74,7.94,2.27,12.74,1.69l-8.4,40.07Z"/>
          <polygon class="cls-1" points="378.34 410.11 365.67 407.68 373.22 372.97 385.76 375.15 378.34 410.11"/>
          <polygon class="cls-1" points="388.14 361.5 376.29 359.05 382.93 327.37 395.11 329.06 388.14 361.5"/>
          <polygon class="cls-1" points="94.79 325.73 83.09 323.19 89 294.35 101.05 296.19 94.79 325.73"/>
        </g>
      </g>
      <g>
        <path class="cls-1" d="M410.76,204.15c-19.65,3.81-37.9-6.94-49.09-22.09,1.31-19.04,9.74-43.75,31.05-47.26,10.16-1.67,19.14,1.42,26.33,8.26,9.65,9.18,14.02,21.98,13.68,35.36-.33,12.92-8.61,23.14-21.97,25.73ZM414.13,162.4c0-4.32-3.5-7.82-7.82-7.82s-7.82,3.5-7.82,7.82,3.5,7.82,7.82,7.82,7.82-3.5,7.82-7.82Z"/>
        <path class="cls-1" d="M246.51,134.36c5.95,19.29-2.43,42.07-22.8,44.05-8.75.85-17.91-1.68-23.08-9.23-8.75-12.79-7.46-31.25,2.35-42.97,6.28-7.5,15.58-10.71,24.85-8.82,8.16,1.66,15.89,7.94,18.68,16.98Z"/>
      </g>
    </g>
  </g>
</svg>